<svg width="19" height="16" viewBox="0 0 19 16" fill="none" xmlns="http://www.w3.org/2000/svg">
<path d="M11.4286 10.8571C11.4286 11.1729 11.1729 11.4286 10.8571 11.4286H7.42857C7.11286 11.4286 6.85714 11.1729 6.85714 10.8571V9.14286H0V14.2857C0 15.2 0.8 16 1.71429 16H16.5714C17.4857 16 18.2857 15.2 18.2857 14.2857V9.14286H11.4286V10.8571ZM16.5714 3.42857H13.7143V1.71429C13.7143 0.8 12.9143 0 12 0H6.28571C5.37143 0 4.57143 0.8 4.57143 1.71429V3.42857H1.71429C0.8 3.42857 0 4.22857 0 5.14286V8H18.2857V5.14286C18.2857 4.22857 17.4857 3.42857 16.5714 3.42857ZM11.4286 3.42857H6.85714V2.28571H11.4286V3.42857Z" fill="#1E1F2C"/>
</svg>
