<svg width="18" height="15" viewBox="0 0 18 15" fill="none" xmlns="http://www.w3.org/2000/svg">
<path d="M17.9486 7.25284L16.02 2.75284C15.9708 2.63665 15.8885 2.53751 15.7833 2.46777C15.6781 2.39804 15.5548 2.3608 15.4286 2.3607H13.5V1.07499C13.5 0.90449 13.4323 0.740977 13.3117 0.620418C13.1912 0.499858 13.0276 0.432129 12.8571 0.432129H0.642857C0.472361 0.432129 0.308848 0.499858 0.188288 0.620418C0.0677294 0.740977 0 0.90449 0 1.07499V12.0036C0 12.1741 0.0677294 12.3376 0.188288 12.4581C0.308848 12.5787 0.472361 12.6464 0.642857 12.6464H2.01857C2.16661 13.1912 2.48979 13.672 2.93824 14.0149C3.38669 14.3577 3.9355 14.5435 4.5 14.5435C5.06449 14.5435 5.61331 14.3577 6.06176 14.0149C6.51021 13.672 6.83339 13.1912 6.98143 12.6464H11.0186C11.1666 13.1912 11.4898 13.672 11.9382 14.0149C12.3867 14.3577 12.9355 14.5435 13.5 14.5435C14.0645 14.5435 14.6133 14.3577 15.0618 14.0149C15.5102 13.672 15.8334 13.1912 15.9814 12.6464H17.3571C17.5276 12.6464 17.6912 12.5787 17.8117 12.4581C17.9323 12.3376 18 12.1741 18 12.0036V7.50356C17.9998 7.41738 17.9823 7.33212 17.9486 7.25284ZM13.5 3.64641H15.0043L16.38 6.8607H13.5V3.64641ZM4.5 13.2893C4.24571 13.2893 3.99713 13.2139 3.7857 13.0726C3.57426 12.9313 3.40947 12.7305 3.31215 12.4956C3.21484 12.2606 3.18938 12.0021 3.23899 11.7527C3.2886 11.5033 3.41105 11.2742 3.59086 11.0944C3.77067 10.9146 3.99977 10.7922 4.24917 10.7425C4.49857 10.6929 4.75709 10.7184 4.99202 10.8157C5.22695 10.913 5.42776 11.0778 5.56903 11.2893C5.71031 11.5007 5.78571 11.7493 5.78571 12.0036C5.78571 12.3445 5.65026 12.6716 5.40914 12.9127C5.16802 13.1538 4.84099 13.2893 4.5 13.2893ZM11.0186 11.3607H6.98143C6.83339 10.816 6.51021 10.3351 6.06176 9.99223C5.61331 9.64938 5.06449 9.46363 4.5 9.46363C3.9355 9.46363 3.38669 9.64938 2.93824 9.99223C2.48979 10.3351 2.16661 10.816 2.01857 11.3607H1.28571V1.71784H12.2143V9.79213C11.9216 9.96203 11.6652 10.188 11.4601 10.4572C11.2549 10.7264 11.1048 11.0334 11.0186 11.3607ZM13.5 13.2893C13.2457 13.2893 12.9971 13.2139 12.7857 13.0726C12.5743 12.9313 12.4095 12.7305 12.3122 12.4956C12.2148 12.2606 12.1894 12.0021 12.239 11.7527C12.2886 11.5033 12.4111 11.2742 12.5909 11.0944C12.7707 10.9146 12.9998 10.7922 13.2492 10.7425C13.4986 10.6929 13.7571 10.7184 13.992 10.8157C14.227 10.913 14.4278 11.0778 14.569 11.2893C14.7103 11.5007 14.7857 11.7493 14.7857 12.0036C14.7857 12.3445 14.6503 12.6716 14.4091 12.9127C14.168 13.1538 13.841 13.2893 13.5 13.2893ZM16.7143 11.3607H15.9814C15.8393 10.8101 15.5186 10.3222 15.0696 9.97321C14.6206 9.62426 14.0686 9.43398 13.5 9.43213V8.14641H16.7143V11.3607Z" fill="#1E1F2C"/>
</svg>
