<svg width="46" height="57" viewBox="0 0 46 57" fill="none" xmlns="http://www.w3.org/2000/svg">
<g clip-path="url(#clip0_105_5)">
<path d="M45.1266 1.25256C45.7377 4.00524 45.5015 6.87793 45.5915 9.62686C45.2817 10.029 44.8781 10.349 44.4161 10.5588C43.9541 10.7687 43.4476 10.8621 42.9411 10.8307C41.333 10.8307 39.7285 10.8944 38.1204 10.9582C33.5245 11.1457 28.9099 11.157 24.3402 11.6257C22.091 11.8545 19.8718 11.7795 17.6526 12.0345C14.1513 12.4358 10.6576 12.8971 7.15629 13.2721C4.93707 13.5121 2.65788 14.0222 0.633595 12.5221C-0.331044 9.52331 -0.188727 6.27791 1.0347 3.3752C6.6952 3.69772 12.1945 2.11137 17.81 1.45883C22.4921 0.900041 27.1967 0.671276 31.8975 0.375006C35.1027 0.176243 38.3153 0.12749 41.5279 -1.82761e-05C42.8512 -0.0450212 44.092 0.12749 45.1266 1.25256ZM3.26517 6.40915C2.79658 7.69174 2.5904 8.76431 3.37388 9.75062C5.10951 9.75062 6.7177 9.84438 8.31088 9.72812C10.8675 9.54436 13.4128 9.16183 15.9694 8.97807C19.1708 8.74181 22.3834 8.48304 25.5923 8.47929C30.4356 8.47929 35.2151 7.943 39.9947 7.26796C40.7182 7.1667 41.4379 7.0542 42.2439 6.93794C42.5738 5.64785 42.6188 4.53403 41.8465 3.36395C39.2225 2.98893 36.5422 3.31145 33.8956 3.43896C29.9407 3.63022 25.9971 3.99774 22.0498 4.31652C20.8839 4.41027 19.7256 4.60528 18.5598 4.72529C15.2647 5.07032 12.0408 5.97412 8.682 5.91412C6.89763 5.87662 5.09827 6.22539 3.26517 6.40915Z" fill="#EECDDF"/>
<path d="M0.315 47.0169C2.96156 46.6007 5.56315 46.1019 8.21721 45.7944C13.4241 45.1831 18.6385 44.598 23.8642 44.1443C28.6587 43.728 33.4083 42.7717 38.2553 42.9442C39.9685 43.0042 41.6591 42.9854 43.2411 43.8817C44.062 44.3468 44.6543 44.8793 44.7406 45.7944C44.9805 48.0445 45.2541 50.2684 44.122 52.391C40.4408 53.7786 36.6247 54.3412 32.8085 54.7424C27.5904 55.29 22.3535 55.6763 17.1278 56.1338C14.0352 56.4038 10.9462 56.7151 7.84984 56.9251C6.2569 57.0176 4.66014 57.0239 3.06653 56.9438C2.47238 56.9293 1.90117 56.7114 1.44819 56.3265C0.995215 55.9416 0.687862 55.4129 0.577407 54.8287C0.0488436 52.3123 -0.273542 49.7734 0.315 47.0169ZM41.288 46.5032C37.602 46.1008 33.8836 46.092 30.1957 46.4769C26.1521 46.9119 22.1098 47.3732 18.0687 47.8607C13.5028 48.4058 8.9382 48.9696 4.37481 49.5521C3.89124 49.6159 3.43765 49.9271 2.84161 50.1821C2.94657 50.8159 3.0103 51.3335 3.11901 51.836C3.24646 52.4435 3.41141 53.0473 3.5651 53.6849C4.01673 53.7818 4.47566 53.8408 4.93712 53.8611C8.79075 53.6774 12.6481 53.5236 16.4943 53.2499C20.3404 52.9761 24.1791 52.6086 28.0102 52.211C31.0092 51.8998 33.9631 51.5172 36.9283 51.086C38.4493 50.8661 39.9229 50.3933 41.288 49.6871V46.5032Z" fill="#EECDDF"/>
<path d="M0.292484 25.2167C1.84069 25.0142 3.2202 24.7517 4.60721 24.6579C9.52922 24.2829 14.4587 23.9529 19.3845 23.6153C24.9475 23.2516 30.5106 22.8203 36.0811 22.5015C38.1191 22.4115 40.1607 22.4416 42.1952 22.5915C44.4444 22.7303 45.674 24.0916 45.8127 26.3193C45.8876 27.4931 45.9514 28.6669 45.9963 29.8408C46.0413 30.8908 45.6927 31.3746 44.5381 31.5809C43.1688 31.8442 41.7839 32.0183 40.3921 32.1022C35.4626 32.3384 30.5593 32.7809 25.6523 33.321C19.4707 34.0073 13.2517 34.3335 7.05509 34.8773C5.22698 35.0382 3.3916 34.6629 1.77321 33.7973C1.22722 33.4852 0.779272 33.0267 0.479918 32.4734C0.120045 31.8134 0.0750611 26.7843 0.292484 25.2167ZM42.5363 25.9217C41.7866 25.7567 41.1868 25.483 40.5795 25.498C28.9136 25.843 17.2515 26.3005 5.64559 27.6544C4.88526 27.7885 4.13405 27.9701 3.39639 28.1981V31.1758C4.27358 31.3409 4.99332 31.5996 5.70932 31.5921C7.63989 31.5696 9.57046 31.4946 11.4935 31.3371C16.6142 30.9283 21.7312 30.467 26.8631 30.0208C27.6128 29.9533 28.3626 29.8445 29.1123 29.792C31.6689 29.6195 34.233 29.507 36.7858 29.2857C38.6864 29.1245 40.6432 29.2857 42.5476 28.5357L42.5363 25.9217Z" fill="#EECDDF"/>
</g>
<defs>
<clipPath id="clip0_105_5">
<rect width="46" height="57" fill="white"/>
</clipPath>
</defs>
</svg>
