<svg width="18" height="14" viewBox="0 0 18 14" fill="none" xmlns="http://www.w3.org/2000/svg">
<path d="M17.9486 6.76689L16.02 2.3024C15.9708 2.18712 15.8885 2.08876 15.7833 2.01958C15.6781 1.9504 15.5548 1.91345 15.4286 1.91335H13.5V0.637784C13.5 0.468633 13.4323 0.306411 13.3117 0.186803C13.1912 0.067195 13.0276 0 12.8571 0H0.642857C0.472361 0 0.308848 0.067195 0.188288 0.186803C0.0677294 0.306411 0 0.468633 0 0.637784V11.4801C0 11.6493 0.0677294 11.8115 0.188288 11.9311C0.308848 12.0507 0.472361 12.1179 0.642857 12.1179H2.01857C2.16661 12.6583 2.48979 13.1354 2.93824 13.4756C3.38669 13.8157 3.9355 14 4.5 14C5.0645 14 5.61331 13.8157 6.06176 13.4756C6.51021 13.1354 6.83339 12.6583 6.98143 12.1179H11.0186C11.1666 12.6583 11.4898 13.1354 11.9382 13.4756C12.3867 13.8157 12.9355 14 13.5 14C14.0645 14 14.6133 13.8157 15.0618 13.4756C15.5102 13.1354 15.8334 12.6583 15.9814 12.1179H17.3571C17.5276 12.1179 17.6912 12.0507 17.8117 11.9311C17.9323 11.8115 18 11.6493 18 11.4801V7.01563C17.9998 6.93013 17.9823 6.84555 17.9486 6.76689ZM13.5 3.18892H15.0043L16.38 6.37784H13.5V3.18892ZM4.5 12.7557C4.24571 12.7557 3.99713 12.6809 3.7857 12.5407C3.57426 12.4006 3.40947 12.2013 3.31215 11.9683C3.21484 11.7352 3.18938 11.4787 3.23899 11.2313C3.2886 10.9838 3.41105 10.7565 3.59086 10.5782C3.77067 10.3998 3.99977 10.2783 4.24917 10.2291C4.49857 10.1798 4.75709 10.2051 4.99202 10.3016C5.22695 10.3982 5.42776 10.5617 5.56903 10.7714C5.71031 10.9812 5.78571 11.2278 5.78571 11.4801C5.78571 11.8184 5.65025 12.1429 5.40914 12.3821C5.16802 12.6213 4.84099 12.7557 4.5 12.7557ZM11.0186 10.8423H6.98143C6.83339 10.3019 6.51021 9.8248 6.06176 9.48466C5.61331 9.14452 5.0645 8.96023 4.5 8.96023C3.9355 8.96023 3.38669 9.14452 2.93824 9.48466C2.48979 9.8248 2.16661 10.3019 2.01857 10.8423H1.28571V1.27557H12.2143V9.28614C11.9216 9.45469 11.6652 9.67893 11.4601 9.94598C11.2549 10.213 11.1048 10.5176 11.0186 10.8423ZM13.5 12.7557C13.2457 12.7557 12.9971 12.6809 12.7857 12.5407C12.5743 12.4006 12.4095 12.2013 12.3122 11.9683C12.2148 11.7352 12.1894 11.4787 12.239 11.2313C12.2886 10.9838 12.4111 10.7565 12.5909 10.5782C12.7707 10.3998 12.9998 10.2783 13.2492 10.2291C13.4986 10.1798 13.7571 10.2051 13.992 10.3016C14.227 10.3982 14.4278 10.5617 14.569 10.7714C14.7103 10.9812 14.7857 11.2278 14.7857 11.4801C14.7857 11.8184 14.6503 12.1429 14.4091 12.3821C14.168 12.6213 13.841 12.7557 13.5 12.7557ZM16.7143 10.8423H15.9814C15.8393 10.2961 15.5186 9.81199 15.0696 9.46579C14.6206 9.11959 14.0686 8.93081 13.5 8.92898V7.65341H16.7143V10.8423Z" fill="#EECDDF"/>
</svg>
