<svg width="32" height="32" viewBox="0 0 32 32" fill="none" xmlns="http://www.w3.org/2000/svg">
<path d="M27.2 0H4.8C2.14903 0 0 2.14903 0 4.8V27.2C0 29.851 2.14903 32 4.8 32H27.2C29.851 32 32 29.851 32 27.2V4.8C32 2.14903 29.851 0 27.2 0Z" fill="#1E1F2C"/>
<path d="M16.5625 4.0625C10.0625 4.0625 6.75 8.75 6.75 12.6875C6.75 15 7.625 17.125 9.5625 17.875C9.875 18 10.1875 17.875 10.3125 17.5625L10.5 16.4375C10.625 16.0625 10.5625 16 10.375 15.6875C9.8125 15 9.4375 14.1875 9.4375 13C9.4375 9.5 12 6.375 16.1875 6.375C19.9375 6.375 21.9375 8.6875 21.9375 11.6875C21.9375 15.6875 20.1875 18.9375 17.5625 18.9375C16.125 18.9375 15.0625 17.8125 15.4375 16.3125C15.8125 14.625 16.625 12.75 16.625 11.5C16.625 10.375 16.0625 9.375 14.75 9.375C13.25 9.375 12.125 10.9375 12.125 13C12.125 14.25 12.5625 15.125 12.5625 15.125L10.75 22.625C10.4795 24.4104 10.5218 26.2292 10.875 28L11.0625 27.9375C11.1875 27.75 13 25.625 13.5625 23.4375L14.5625 19.625C15 20.5625 16.375 21.375 17.875 21.375C22.3125 21.375 25.3125 17.375 25.3125 11.9375C25.3125 7.8125 21.8125 4.0625 16.5625 4.0625Z" fill="white"/>
</svg>
