<svg width="32" height="32" viewBox="0 0 32 32" fill="none" xmlns="http://www.w3.org/2000/svg">
<rect width="32" height="32" fill="#1E1F2C"/>
<g clip-path="url(#clip0_110_24)">
<path d="M28.1875 12.3438H18.8844L16 3.8125L13.1156 12.3438H3.8125L11.3281 17.625L8.44375 26.1562L16 20.875L23.5156 26.1562L20.6313 17.625L28.1875 12.3438Z" fill="#EECDDF"/>
<path d="M21.7688 11.247L23.3938 6.61572L19.1282 9.54072L19.7375 11.247H21.7688ZM14.3344 23.3126L16 28.1876L17.6656 23.3126L16 22.1751L14.3344 23.3126ZM23.5969 16.9345L22.0532 17.9907L22.7032 19.9407H27.9438L23.5969 16.9345ZM12.8719 9.54072L8.60627 6.61572L10.2313 11.247H12.2625L12.8719 9.54072ZM8.40315 16.9345L4.05627 19.9407H9.2969L9.9469 17.9907L8.40315 16.9345Z" fill="#F7EFAD"/>
</g>
<defs>
<clipPath id="clip0_110_24">
<rect width="26" height="26" fill="white" transform="translate(3 3)"/>
</clipPath>
</defs>
</svg>
